# MagicaVoxel @ Ephtracy

# group
o 

# material
mtllib Tile.mtl
usemtl palette

# normals
vn -1 0 0
vn 1 0 0
vn 0 0 1
vn 0 0 -1
vn 0 -1 0
vn 0 1 0

# texcoords
vt 0.712891 0.5
vt 0.716797 0.5
vt 0.869141 0.5

# verts
v -0.5 0 0.5
v -0.5 0 -0.5
v -0.5 0.5 0.5
v -0.5 0.5 0.4
v -0.5 0.5 -0.1
v -0.5 0.5 -0.2
v -0.5 0.6 0.2
v -0.5 0.6 0
v -0.5 0.6 -0.3
v -0.5 0.6 -0.5
v -0.5 0.7 0.4
v -0.5 0.7 0.2
v -0.5 0.7 0
v -0.5 0.7 -0.1
v -0.5 0.7 -0.2
v -0.5 0.7 -0.3
v -0.5 0.9 -0.2
v -0.5 0.9 -0.3
v -0.5 1 0.5
v -0.5 1 -0.2
v -0.5 1 -0.3
v -0.5 1 -0.5
v 0.5 0 0.5
v 0.5 0 -0.5
v 0.5 0.5 0.3
v 0.5 0.5 0.2
v 0.5 0.5 -0.3
v 0.5 0.5 -0.4
v 0.5 0.6 0.5
v 0.5 0.6 0.4
v 0.5 0.6 0.2
v 0.5 0.6 0
v 0.5 0.6 -0.2
v 0.5 0.6 -0.3
v 0.5 0.7 0.4
v 0.5 0.7 0.3
v 0.5 0.7 0
v 0.5 0.7 -0.2
v 0.5 0.7 -0.4
v 0.5 0.7 -0.5
v 0.5 1 0.5
v 0.5 1 -0.5
v -0.5 0 0.5
v -0.5 0.5 0.5
v -0.5 1 0.5
v -0.4 0.5 0.5
v -0.4 0.7 0.5
v -0.3 0.6 0.5
v -0.3 0.7 0.5
v -0.2 0.5 0.5
v -0.2 0.6 0.5
v -0.1 0.5 0.5
v -0.1 0.7 0.5
v 0 0.6 0.5
v 0 0.7 0.5
v 0.1 0.5 0.5
v 0.1 0.6 0.5
v 0.2 0.5 0.5
v 0.2 0.7 0.5
v 0.3 0.6 0.5
v 0.3 0.7 0.5
v 0.5 0 0.5
v 0.5 0.6 0.5
v 0.5 1 0.5
v -0.5 0 -0.5
v -0.5 0.6 -0.5
v -0.5 1 -0.5
v -0.4 0.6 -0.5
v -0.4 0.7 -0.5
v -0.3 0.6 -0.5
v -0.3 0.7 -0.5
v -0.2 0.6 -0.5
v -0.2 0.7 -0.5
v -0.1 0.5 -0.5
v -0.1 0.7 -0.5
v 0 0.5 -0.5
v 0 0.7 -0.5
v 0.1 0.6 -0.5
v 0.1 0.7 -0.5
v 0.3 0.6 -0.5
v 0.3 0.7 -0.5
v 0.5 0 -0.5
v 0.5 0.7 -0.5
v 0.5 1 -0.5
v -0.5 0 0.5
v 0.5 0 0.5
v -0.5 0 -0.5
v 0.5 0 -0.5
v -0.5 1 0.5
v 0.5 1 0.5
v -0.4 1 0.4
v -0.3 1 0.4
v 0.2 1 0.4
v 0.3 1 0.4
v -0.1 1 0.3
v 0 1 0.3
v -0.4 1 0.2
v -0.3 1 0.2
v -0.1 1 0.1
v 0 1 0.1
v 0.2 1 0.1
v 0.3 1 0.1
v 0.1 1 0
v 0.2 1 0
v -0.2 1 -0.1
v 0 1 -0.1
v -0.5 1 -0.2
v -0.4 1 -0.2
v -0.5 1 -0.3
v -0.4 1 -0.3
v -0.3 1 -0.3
v -0.2 1 -0.3
v 0 1 -0.3
v 0.1 1 -0.3
v 0.2 1 -0.3
v -0.4 1 -0.4
v -0.3 1 -0.4
v -0.5 1 -0.5
v 0.5 1 -0.5

# faces
f 3/3/1 2/3/1 1/3/1
f 4/3/1 2/3/1 3/3/1
f 5/3/1 2/3/1 4/3/1
f 6/3/1 2/3/1 5/3/1
f 7/3/1 5/3/1 4/3/1
f 8/3/1 5/3/1 7/3/1
f 9/3/1 2/3/1 6/3/1
f 10/3/1 2/3/1 9/3/1
f 11/2/1 4/2/1 3/2/1
f 11/3/1 7/3/1 4/3/1
f 12/2/1 8/2/1 7/2/1
f 12/3/1 7/3/1 11/3/1
f 13/3/1 5/3/1 8/3/1
f 13/2/1 8/2/1 12/2/1
f 14/2/1 6/2/1 5/2/1
f 14/3/1 5/3/1 13/3/1
f 15/3/1 9/3/1 6/3/1
f 15/2/1 6/2/1 14/2/1
f 16/2/1 10/2/1 9/2/1
f 16/3/1 9/3/1 15/3/1
f 17/2/1 12/2/1 11/2/1
f 17/2/1 13/2/1 12/2/1
f 17/2/1 16/2/1 15/2/1
f 17/2/1 14/2/1 13/2/1
f 17/2/1 15/2/1 14/2/1
f 18/2/1 10/2/1 16/2/1
f 18/2/1 16/2/1 17/2/1
f 19/2/1 17/2/1 11/2/1
f 19/2/1 11/2/1 3/2/1
f 20/1/1 18/1/1 17/1/1
f 20/2/1 17/2/1 19/2/1
f 21/2/1 10/2/1 18/2/1
f 21/1/1 18/1/1 20/1/1
f 22/2/1 10/2/1 21/2/1
f 23/3/2 24/3/2 25/3/2
f 25/3/2 24/3/2 26/3/2
f 26/3/2 24/3/2 27/3/2
f 27/3/2 24/3/2 28/3/2
f 23/3/2 25/3/2 29/3/2
f 29/3/2 25/3/2 30/3/2
f 25/2/2 26/2/2 31/2/2
f 26/3/2 27/3/2 31/3/2
f 31/3/2 27/3/2 32/3/2
f 32/3/2 27/3/2 33/3/2
f 27/2/2 28/2/2 34/2/2
f 33/3/2 27/3/2 34/3/2
f 30/3/2 25/3/2 35/3/2
f 29/2/2 30/2/2 35/2/2
f 25/2/2 31/2/2 36/2/2
f 35/3/2 25/3/2 36/3/2
f 31/2/2 32/2/2 36/2/2
f 32/3/2 33/3/2 37/3/2
f 36/2/2 32/2/2 37/2/2
f 33/2/2 34/2/2 38/2/2
f 37/3/2 33/3/2 38/3/2
f 28/3/2 24/3/2 39/3/2
f 38/2/2 34/2/2 39/2/2
f 34/2/2 28/2/2 39/2/2
f 39/3/2 24/3/2 40/3/2
f 37/2/2 38/2/2 41/2/2
f 29/2/2 35/2/2 41/2/2
f 39/2/2 40/2/2 41/2/2
f 38/2/2 39/2/2 41/2/2
f 36/2/2 37/2/2 41/2/2
f 35/2/2 36/2/2 41/2/2
f 41/2/2 40/2/2 42/2/2
f 46/3/3 44/3/3 43/3/3
f 46/2/3 45/2/3 44/2/3
f 47/2/3 45/2/3 46/2/3
f 48/3/3 47/3/3 46/3/3
f 49/2/3 45/2/3 47/2/3
f 49/3/3 47/3/3 48/3/3
f 50/3/3 46/3/3 43/3/3
f 50/3/3 48/3/3 46/3/3
f 51/2/3 49/2/3 48/2/3
f 51/3/3 48/3/3 50/3/3
f 52/3/3 50/3/3 43/3/3
f 52/2/3 51/2/3 50/2/3
f 53/2/3 45/2/3 49/2/3
f 53/2/3 51/2/3 52/2/3
f 53/2/3 49/2/3 51/2/3
f 54/3/3 53/3/3 52/3/3
f 55/2/3 45/2/3 53/2/3
f 55/3/3 53/3/3 54/3/3
f 56/3/3 52/3/3 43/3/3
f 56/3/3 54/3/3 52/3/3
f 57/2/3 55/2/3 54/2/3
f 57/3/3 54/3/3 56/3/3
f 58/3/3 56/3/3 43/3/3
f 58/2/3 57/2/3 56/2/3
f 59/2/3 45/2/3 55/2/3
f 59/2/3 57/2/3 58/2/3
f 59/2/3 55/2/3 57/2/3
f 60/3/3 59/3/3 58/3/3
f 61/2/3 45/2/3 59/2/3
f 61/3/3 59/3/3 60/3/3
f 62/3/3 58/3/3 43/3/3
f 62/3/3 60/3/3 58/3/3
f 63/2/3 61/2/3 60/2/3
f 63/3/3 60/3/3 62/3/3
f 64/2/3 45/2/3 61/2/3
f 64/2/3 61/2/3 63/2/3
f 65/3/4 66/3/4 68/3/4
f 66/2/4 67/2/4 68/2/4
f 68/2/4 67/2/4 69/2/4
f 65/3/4 68/3/4 70/3/4
f 68/3/4 69/3/4 70/3/4
f 69/2/4 67/2/4 71/2/4
f 70/3/4 69/3/4 71/3/4
f 65/3/4 70/3/4 72/3/4
f 70/2/4 71/2/4 72/2/4
f 71/2/4 67/2/4 73/2/4
f 72/2/4 71/2/4 73/2/4
f 65/3/4 72/3/4 74/3/4
f 72/3/4 73/3/4 74/3/4
f 73/2/4 67/2/4 75/2/4
f 74/3/4 73/3/4 75/3/4
f 65/3/4 74/3/4 76/3/4
f 74/2/4 75/2/4 76/2/4
f 75/2/4 67/2/4 77/2/4
f 76/2/4 75/2/4 77/2/4
f 76/3/4 77/3/4 78/3/4
f 77/2/4 67/2/4 79/2/4
f 78/3/4 77/3/4 79/3/4
f 76/3/4 78/3/4 80/3/4
f 78/2/4 79/2/4 80/2/4
f 79/2/4 67/2/4 81/2/4
f 80/2/4 79/2/4 81/2/4
f 65/3/4 76/3/4 82/3/4
f 76/3/4 80/3/4 82/3/4
f 80/3/4 81/3/4 82/3/4
f 81/2/4 67/2/4 83/2/4
f 82/3/4 81/3/4 83/3/4
f 83/2/4 67/2/4 84/2/4
f 87/3/5 86/3/5 85/3/5
f 88/3/5 86/3/5 87/3/5
f 89/2/6 90/2/6 91/2/6
f 91/2/6 90/2/6 92/2/6
f 92/2/6 90/2/6 93/2/6
f 93/2/6 90/2/6 94/2/6
f 92/2/6 93/2/6 95/2/6
f 95/2/6 93/2/6 96/2/6
f 89/2/6 91/2/6 97/2/6
f 91/1/6 92/1/6 97/1/6
f 92/2/6 95/2/6 98/2/6
f 97/1/6 92/1/6 98/1/6
f 95/1/6 96/1/6 99/1/6
f 98/2/6 95/2/6 99/2/6
f 97/2/6 98/2/6 99/2/6
f 96/2/6 93/2/6 100/2/6
f 99/1/6 96/1/6 100/1/6
f 93/1/6 94/1/6 101/1/6
f 100/2/6 93/2/6 101/2/6
f 94/2/6 90/2/6 102/2/6
f 101/1/6 94/1/6 102/1/6
f 100/2/6 101/2/6 103/2/6
f 99/2/6 100/2/6 103/2/6
f 101/2/6 102/2/6 103/2/6
f 103/2/6 102/2/6 104/2/6
f 97/2/6 99/2/6 105/2/6
f 99/2/6 103/2/6 105/2/6
f 105/2/6 103/2/6 106/2/6
f 89/2/6 97/2/6 107/2/6
f 97/2/6 105/2/6 107/2/6
f 107/2/6 105/2/6 108/2/6
f 107/1/6 108/1/6 109/1/6
f 108/2/6 105/2/6 110/2/6
f 109/1/6 108/1/6 110/1/6
f 110/2/6 105/2/6 111/2/6
f 105/1/6 106/1/6 112/1/6
f 111/2/6 105/2/6 112/2/6
f 106/2/6 103/2/6 113/2/6
f 112/1/6 106/1/6 113/1/6
f 103/1/6 104/1/6 114/1/6
f 113/2/6 103/2/6 114/2/6
f 104/2/6 102/2/6 115/2/6
f 114/1/6 104/1/6 115/1/6
f 110/1/6 111/1/6 116/1/6
f 109/2/6 110/2/6 116/2/6
f 113/2/6 114/2/6 117/2/6
f 116/1/6 111/1/6 117/1/6
f 111/2/6 112/2/6 117/2/6
f 114/2/6 115/2/6 117/2/6
f 112/2/6 113/2/6 117/2/6
f 109/2/6 116/2/6 118/2/6
f 116/2/6 117/2/6 118/2/6
f 117/2/6 115/2/6 119/2/6
f 118/2/6 117/2/6 119/2/6
f 102/2/6 90/2/6 119/2/6
f 115/2/6 102/2/6 119/2/6
