# MagicaVoxel @ Ephtracy

# group
o 

# material
mtllib untitled.mtl
usemtl palette

# normals
vn -1 0 0
vn 1 0 0
vn 0 0 1
vn 0 0 -1
vn 0 -1 0
vn 0 1 0

# texcoords
vt 0.212891 0.5
vt 0.306641 0.5
vt 0.533203 0.5
vt 0.767578 0.5
vt 0.791016 0.5
vt 0.818359 0.5

# verts
v -2 0 2
v -2 0 -2
v -2 2.1 -1.6
v -2 2.1 -1.7
v -2 2.1 -1.8
v -2 2.1 -2
v -2 2.2 2
v -2 2.2 1.7
v -2 2.2 -1.5
v -2 2.2 -1.6
v -2 2.3 2
v -2 2.3 1.9
v -2 2.3 1.7
v -2 2.3 1.6
v -2 2.3 1.4
v -2 2.3 0.2
v -2 2.3 -0.3
v -2 2.3 -1.4
v -2 2.3 -1.5
v -2 2.3 -1.6
v -2 2.3 -1.7
v -2 2.4 1.7
v -2 2.4 1.6
v -2 2.4 1.4
v -2 2.4 1.1
v -2 2.4 -1.3
v -2 2.4 -1.4
v -2 2.4 -1.5
v -2 2.4 -1.6
v -2 2.4 -1.8
v -2 2.4 -2
v -2 2.5 0.3
v -2 2.5 0.2
v -2 2.5 -0.3
v -2 2.5 -0.4
v -2 2.5 -0.7
v -2 2.5 -1
v -2 2.5 -1.3
v -2 2.5 -1.4
v -2 2.5 -1.5
v -2 2.6 0.4
v -2 2.6 0.3
v -2 2.6 -0.4
v -2 2.6 -0.7
v -2 2.6 -1
v -2 2.6 -1.4
v -2 2.7 2
v -2 2.7 1.9
v -2 2.7 0.9
v -2 2.7 0.4
v -2 2.7 0.3
v -2 2.7 -0.3
v -2 2.7 -0.7
v -2 2.7 -0.8
v -2 2.7 -1
v -2 2.8 2
v -2 2.8 1.9
v -2 2.8 1.1
v -2 2.8 0.9
v -2 2.9 1.5
v -2 2.9 1.1
v -2 2.9 -0.8
v -2 2.9 -1.3
v -2 2.9 -1.4
v -2 2.9 -1.6
v -2 3 1.7
v -2 3 1.5
v -2 3 0.2
v -2 3 -0.3
v -2 3 -1.9
v -2 3 -2
v -2 3.1 0.3
v -2 3.1 -0.3
v -2 3.3 1.6
v -2 3.3 1
v -2 3.4 0.9
v -2 3.4 0.6
v -2 3.8 -0.5
v -2 3.8 -1.3
v -2 3.9 1
v -2 3.9 0.6
v -2 4 2
v -2 4 1.9
v -2 4 1.6
v -2 4 -0.5
v -2 4 -1.4
v -2 4 -1.9
v -2 4 -2
v 2 0 2
v 2 0 -2
v 2 1.8 -0.8
v 2 1.8 -1
v 2 1.9 -0.4
v 2 1.9 -0.8
v 2 1.9 -1
v 2 1.9 -1.1
v 2 2 -0.3
v 2 2 -0.4
v 2 2 -1.1
v 2 2 -1.2
v 2 2.1 -0.1
v 2 2.1 -0.3
v 2 2.1 -1.2
v 2 2.1 -1.3
v 2 2.2 2
v 2 2.2 1.9
v 2 2.2 1.8
v 2 2.2 -0.2
v 2 2.2 -0.4
v 2 2.3 -1.3
v 2 2.3 -1.4
v 2 2.3 -1.5
v 2 2.3 -1.9
v 2 2.3 -2
v 2 2.4 0.0999999
v 2 2.4 -0.1
v 2 2.4 -0.2
v 2 2.4 -0.4
v 2 2.4 -1
v 2 2.4 -1.4
v 2 2.4 -1.5
v 2 2.4 -1.9
v 2 2.5 1.2
v 2 2.5 1
v 2 2.6 1.8
v 2 2.6 1.6
v 2 2.6 1.2
v 2 2.6 1
v 2 2.6 0.9
v 2 2.6 0.8
v 2 2.6 0.3
v 2 2.6 0.0999999
v 2 2.7 1.8
v 2 2.7 1.6
v 2 2.7 0.8
v 2 2.7 0.3
v 2 2.9 0.8
v 2 2.9 0.2
v 2 3 2
v 2 3 1.9
v 2 3.4 0.8
v 2 3.4 0.2
v 2 3.5 1.6
v 2 3.5 0.9
v 2 3.6 2
v 2 3.6 0.7
v 2 3.7 0.0999999
v 2 3.7 -2
v 2 4 2
v 2 4 0.7
v 2 4 -2
v -2 0 2
v -2 2.2 2
v -2 2.3 2
v -2 2.7 2
v -2 2.8 2
v -2 4 2
v -1.9 2.2 2
v -1.9 2.3 2
v -1.7 2.3 2
v -1.7 2.5 2
v -1.7 2.7 2
v -1.7 2.8 2
v -1.6 2.5 2
v -1.6 2.6 2
v -1.6 2.8 2
v -1.5 2.6 2
v -1.5 2.7 2
v -0.9 2.6 2
v -0.9 2.7 2
v -0.9 2.8 2
v -0.9 3.9 2
v -0.9 4 2
v -0.6 2.5 2
v -0.6 2.6 2
v -0.4 2.3 2
v -0.4 2.5 2
v -0.3 2.4 2
v -0.3 2.5 2
v -0.3 2.6 2
v -0.3 2.7 2
v -0.3 3.7 2
v -0.3 3.9 2
v -0.2 2.2 2
v -0.2 2.3 2
v -0.2 2.4 2
v -0.2 2.7 2
v -0.0999999 2.3 2
v -0.0999999 2.4 2
v -0.0999999 3.9 2
v -0.0999999 4 2
v 2.38419e-07 2.2 2
v 2.38419e-07 2.3 2
v 0.1 2.2 2
v 0.1 2.3 2
v 0.1 3.7 2
v 0.1 3.9 2
v 0.3 2.4 2
v 0.3 2.7 2
v 0.4 2.7 2
v 0.4 3.1 2
v 0.6 2.2 2
v 0.6 2.3 2
v 0.7 2.3 2
v 0.7 2.8 2
v 1.3 2.3 2
v 1.3 2.8 2
v 1.3 3.1 2
v 1.3 3.9 2
v 1.4 2.2 2
v 1.4 2.3 2
v 1.4 3 2
v 1.4 3.6 2
v 1.4 3.9 2
v 1.7 2.1 2
v 1.7 2.2 2
v 1.9 2.1 2
v 1.9 2.2 2
v 2 0 2
v 2 2.2 2
v 2 3 2
v 2 3.6 2
v 2 4 2
v -2 0 -2
v -2 2.1 -2
v -2 2.4 -2
v -2 3 -2
v -2 4 -2
v -1.9 2.1 -2
v -1.9 2.2 -2
v -1.9 2.4 -2
v -1.9 3 -2
v -1.9 3.1 -2
v -1.9 3.5 -2
v -1.8 2.7 -2
v -1.8 3 -2
v -1.6 3.8 -2
v -1.6 4 -2
v -1.5 2.2 -2
v -1.5 2.3 -2
v -1.5 3.1 -2
v -1.5 3.5 -2
v -1.4 2.3 -2
v -1.4 2.4 -2
v -1.4 3.2 -2
v -1.4 3.6 -2
v -1.3 2.4 -2
v -1.3 2.5 -2
v -1.2 2.5 -2
v -1.2 2.6 -2
v -1.2 2.7 -2
v -1.1 2.7 -2
v -1.1 3 -2
v -0.9 2.9 -2
v -0.9 3.2 -2
v -0.7 2.9 -2
v -0.7 3.2 -2
v -0.6 3.2 -2
v -0.6 3.6 -2
v -0.5 2.8 -2
v -0.5 3.4 -2
v -0.4 2.6 -2
v -0.4 2.7 -2
v 0.1 2.6 -2
v 0.1 2.7 -2
v 0.2 2.7 -2
v 0.2 2.8 -2
v 0.4 3.4 -2
v 0.4 3.8 -2
v 0.4 4 -2
v 0.6 2.8 -2
v 0.6 2.9 -2
v 0.6 3 -2
v 0.6 3.4 -2
v 0.9 2.8 -2
v 0.9 2.9 -2
v 0.9 3.4 -2
v 0.9 3.8 -2
v 1.1 2.9 -2
v 1.1 3 -2
v 1.2 3.1 -2
v 1.2 4 -2
v 1.3 2.7 -2
v 1.3 2.8 -2
v 1.4 2.8 -2
v 1.4 2.9 -2
v 1.5 2.6 -2
v 1.5 2.7 -2
v 1.5 2.8 -2
v 1.5 3.1 -2
v 1.5 4 -2
v 1.6 2.5 -2
v 1.6 2.6 -2
v 1.6 2.7 -2
v 1.6 2.8 -2
v 1.7 2.4 -2
v 1.7 2.5 -2
v 1.7 2.7 -2
v 1.7 3.5 -2
v 1.8 2.3 -2
v 1.8 2.4 -2
v 1.9 3.5 -2
v 1.9 3.7 -2
v 2 0 -2
v 2 2.3 -2
v 2 3.7 -2
v 2 4 -2
v -2 0 2
v 2 0 2
v -2 0 -2
v 2 0 -2
v -2 4 2
v -0.9 4 2
v -0.0999999 4 2
v 2 4 2
v -2 4 1.9
v -0.9 4 1.9
v 0.5 4 1.9
v 1 4 1.9
v 0.7 4 1.7
v 1 4 1.7
v -2 4 1.6
v -0.0999999 4 1.6
v 0.5 4 1.6
v 0.7 4 1.6
v 1 4 1.5
v 1.4 4 1.5
v 1 4 0.8
v 1.4 4 0.8
v 1.9 4 0.7
v 2 4 0.7
v -1.9 4 0.5
v -0.0999999 4 0.5
v 0.5 4 0.5
v 0.6 4 0.5
v -1.9 4 0.4
v -1.3 4 0.4
v -1.1 4 0.0999999
v -0.0999999 4 0.0999999
v -1.2 4 -0.1
v -1.1 4 -0.1
v -1.9 4 -0.2
v -1.3 4 -0.2
v 0.6 4 -0.2
v 1 4 -0.2
v -0.7 4 -0.3
v 2.38419e-07 4 -0.3
v 0.4 4 -0.3
v 0.5 4 -0.3
v -2 4 -0.5
v -1.9 4 -0.5
v -1.7 4 -0.6
v -1.3 4 -0.6
v -1.2 4 -0.6
v -0.7 4 -0.6
v 2.38419e-07 4 -0.6
v 0.4 4 -0.9
v 1 4 -0.9
v -1.8 4 -1
v -1.7 4 -1
v -1.3 4 -1
v -0.7 4 -1
v -2 4 -1.4
v -1.9 4 -1.4
v -1.8 4 -1.5
v -1.7 4 -1.5
v 0.4 4 -1.6
v 1 4 -1.6
v -1.7 4 -1.7
v -1.6 4 -1.7
v -2 4 -1.9
v -1.9 4 -1.9
v 1 4 -1.9
v 1.2 4 -1.9
v 1.5 4 -1.9
v 1.9 4 -1.9
v -2 4 -2
v -1.6 4 -2
v 0.4 4 -2
v 1.2 4 -2
v 1.5 4 -2
v 2 4 -2

# faces
f 3/3/1 2/3/1 1/3/1
f 4/3/1 2/3/1 3/3/1
f 5/3/1 2/3/1 4/3/1
f 6/3/1 2/3/1 5/3/1
f 7/3/1 3/3/1 1/3/1
f 8/3/1 3/3/1 7/3/1
f 9/3/1 3/3/1 8/3/1
f 10/6/1 4/6/1 3/6/1
f 10/3/1 3/3/1 9/3/1
f 11/5/1 8/5/1 7/5/1
f 12/5/1 8/5/1 11/5/1
f 13/3/1 9/3/1 8/3/1
f 13/5/1 8/5/1 12/5/1
f 14/3/1 9/3/1 13/3/1
f 15/3/1 9/3/1 14/3/1
f 16/3/1 9/3/1 15/3/1
f 17/3/1 9/3/1 16/3/1
f 18/3/1 9/3/1 17/3/1
f 19/6/1 10/6/1 9/6/1
f 19/3/1 9/3/1 18/3/1
f 20/6/1 4/6/1 10/6/1
f 20/6/1 10/6/1 19/6/1
f 21/5/1 5/5/1 4/5/1
f 21/6/1 4/6/1 20/6/1
f 22/5/1 13/5/1 12/5/1
f 22/5/1 14/5/1 13/5/1
f 23/6/1 15/6/1 14/6/1
f 23/5/1 14/5/1 22/5/1
f 24/3/1 16/3/1 15/3/1
f 24/6/1 15/6/1 23/6/1
f 25/3/1 16/3/1 24/3/1
f 26/3/1 18/3/1 17/3/1
f 27/6/1 20/6/1 19/6/1
f 27/3/1 18/3/1 26/3/1
f 27/6/1 19/6/1 18/6/1
f 28/6/1 20/6/1 27/6/1
f 29/5/1 21/5/1 20/5/1
f 29/6/1 20/6/1 28/6/1
f 30/6/1 6/6/1 5/6/1
f 30/5/1 21/5/1 29/5/1
f 30/5/1 5/5/1 21/5/1
f 31/6/1 6/6/1 30/6/1
f 32/3/1 16/3/1 25/3/1
f 33/4/1 17/4/1 16/4/1
f 33/3/1 16/3/1 32/3/1
f 34/3/1 26/3/1 17/3/1
f 34/4/1 17/4/1 33/4/1
f 35/3/1 26/3/1 34/3/1
f 36/3/1 26/3/1 35/3/1
f 37/3/1 26/3/1 36/3/1
f 38/6/1 27/6/1 26/6/1
f 38/3/1 26/3/1 37/3/1
f 38/6/1 28/6/1 27/6/1
f 39/6/1 28/6/1 38/6/1
f 40/5/1 29/5/1 28/5/1
f 40/6/1 28/6/1 39/6/1
f 41/3/1 32/3/1 25/3/1
f 42/5/1 33/5/1 32/5/1
f 42/3/1 32/3/1 41/3/1
f 43/6/1 36/6/1 35/6/1
f 43/5/1 35/5/1 34/5/1
f 44/3/1 37/3/1 36/3/1
f 44/6/1 36/6/1 43/6/1
f 45/6/1 39/6/1 38/6/1
f 45/3/1 37/3/1 44/3/1
f 45/6/1 38/6/1 37/6/1
f 46/5/1 40/5/1 39/5/1
f 46/6/1 39/6/1 45/6/1
f 47/4/1 12/4/1 11/4/1
f 48/5/1 22/5/1 12/5/1
f 48/4/1 12/4/1 47/4/1
f 49/3/1 41/3/1 25/3/1
f 50/5/1 42/5/1 41/5/1
f 50/3/1 41/3/1 49/3/1
f 51/5/1 33/5/1 42/5/1
f 51/5/1 42/5/1 50/5/1
f 52/5/1 44/5/1 43/5/1
f 52/5/1 43/5/1 34/5/1
f 52/4/1 34/4/1 33/4/1
f 53/3/1 45/3/1 44/3/1
f 53/5/1 44/5/1 52/5/1
f 54/3/1 45/3/1 53/3/1
f 55/5/1 46/5/1 45/5/1
f 55/3/1 45/3/1 54/3/1
f 56/5/1 48/5/1 47/5/1
f 57/5/1 22/5/1 48/5/1
f 57/5/1 48/5/1 56/5/1
f 58/4/1 25/4/1 24/4/1
f 58/4/1 23/4/1 22/4/1
f 58/4/1 24/4/1 23/4/1
f 58/3/1 49/3/1 25/3/1
f 59/4/1 51/4/1 50/4/1
f 59/3/1 49/3/1 58/3/1
f 59/4/1 50/4/1 49/4/1
f 60/4/1 58/4/1 22/4/1
f 61/5/1 59/5/1 58/5/1
f 61/4/1 58/4/1 60/4/1
f 62/4/1 54/4/1 53/4/1
f 62/5/1 55/5/1 54/5/1
f 62/4/1 53/4/1 52/4/1
f 63/5/1 46/5/1 55/5/1
f 63/5/1 55/5/1 62/5/1
f 64/5/1 40/5/1 46/5/1
f 64/5/1 46/5/1 63/5/1
f 65/5/1 29/5/1 40/5/1
f 65/5/1 40/5/1 64/5/1
f 65/4/1 30/4/1 29/4/1
f 65/4/1 31/4/1 30/4/1
f 66/5/1 22/5/1 57/5/1
f 66/4/1 60/4/1 22/4/1
f 67/5/1 61/5/1 60/5/1
f 67/4/1 60/4/1 66/4/1
f 68/4/1 63/4/1 62/4/1
f 68/5/1 33/5/1 51/5/1
f 68/4/1 52/4/1 33/4/1
f 68/4/1 62/4/1 52/4/1
f 69/4/1 63/4/1 68/4/1
f 70/4/1 31/4/1 65/4/1
f 70/4/1 65/4/1 64/4/1
f 71/4/1 31/4/1 70/4/1
f 72/4/1 51/4/1 59/4/1
f 72/5/1 69/5/1 68/5/1
f 72/5/1 68/5/1 51/5/1
f 73/4/1 63/4/1 69/4/1
f 73/5/1 69/5/1 72/5/1
f 74/5/1 67/5/1 66/5/1
f 75/5/1 61/5/1 67/5/1
f 75/5/1 67/5/1 74/5/1
f 75/5/1 59/5/1 61/5/1
f 76/4/1 72/4/1 59/4/1
f 76/5/1 59/5/1 75/5/1
f 76/4/1 73/4/1 72/4/1
f 77/4/1 73/4/1 76/4/1
f 78/4/1 63/4/1 73/4/1
f 78/4/1 73/4/1 77/4/1
f 79/5/1 64/5/1 63/5/1
f 79/4/1 63/4/1 78/4/1
f 80/5/1 77/5/1 76/5/1
f 80/4/1 75/4/1 74/4/1
f 80/5/1 76/5/1 75/5/1
f 81/4/1 78/4/1 77/4/1
f 81/5/1 77/5/1 80/5/1
f 82/4/1 57/4/1 56/4/1
f 83/5/1 74/5/1 66/5/1
f 83/4/1 57/4/1 82/4/1
f 83/5/1 66/5/1 57/5/1
f 84/4/1 80/4/1 74/4/1
f 84/5/1 74/5/1 83/5/1
f 84/4/1 81/4/1 80/4/1
f 85/5/1 79/5/1 78/5/1
f 85/4/1 81/4/1 84/4/1
f 85/4/1 78/4/1 81/4/1
f 86/5/1 64/5/1 79/5/1
f 86/5/1 79/5/1 85/5/1
f 86/4/1 70/4/1 64/4/1
f 87/5/1 71/5/1 70/5/1
f 87/4/1 70/4/1 86/4/1
f 88/5/1 71/5/1 87/5/1
f 89/3/2 90/3/2 91/3/2
f 91/3/2 90/3/2 92/3/2
f 89/3/2 91/3/2 93/3/2
f 91/5/2 92/5/2 94/5/2
f 93/3/2 91/3/2 94/3/2
f 92/3/2 90/3/2 95/3/2
f 94/5/2 92/5/2 95/5/2
f 95/3/2 90/3/2 96/3/2
f 89/3/2 93/3/2 97/3/2
f 93/4/2 94/4/2 98/4/2
f 97/3/2 93/3/2 98/3/2
f 94/4/2 95/4/2 98/4/2
f 96/3/2 90/3/2 99/3/2
f 95/5/2 96/5/2 99/5/2
f 99/3/2 90/3/2 100/3/2
f 89/3/2 97/3/2 101/3/2
f 97/6/2 98/6/2 102/6/2
f 101/3/2 97/3/2 102/3/2
f 100/3/2 90/3/2 103/3/2
f 99/5/2 100/5/2 103/5/2
f 103/3/2 90/3/2 104/3/2
f 89/3/2 101/3/2 105/3/2
f 105/3/2 101/3/2 106/3/2
f 106/3/2 101/3/2 107/3/2
f 101/6/2 102/6/2 108/6/2
f 102/6/2 98/6/2 109/6/2
f 108/6/2 102/6/2 109/6/2
f 98/4/2 95/4/2 109/4/2
f 104/3/2 90/3/2 110/3/2
f 103/5/2 104/5/2 110/5/2
f 110/3/2 90/3/2 111/3/2
f 111/3/2 90/3/2 112/3/2
f 112/3/2 90/3/2 113/3/2
f 113/3/2 90/3/2 114/3/2
f 107/3/2 101/3/2 115/3/2
f 101/6/2 108/6/2 116/6/2
f 115/3/2 101/3/2 116/3/2
f 108/5/2 109/5/2 117/5/2
f 116/6/2 108/6/2 117/6/2
f 109/4/2 95/4/2 118/4/2
f 117/5/2 109/5/2 118/5/2
f 95/5/2 99/5/2 119/5/2
f 118/4/2 95/4/2 119/4/2
f 99/5/2 103/5/2 119/5/2
f 103/5/2 110/5/2 119/5/2
f 110/5/2 111/5/2 119/5/2
f 111/3/2 112/3/2 120/3/2
f 119/5/2 111/5/2 120/5/2
f 112/5/2 113/5/2 121/5/2
f 120/3/2 112/3/2 121/3/2
f 113/4/2 114/4/2 122/4/2
f 121/5/2 113/5/2 122/5/2
f 107/3/2 115/3/2 123/3/2
f 123/3/2 115/3/2 124/3/2
f 106/5/2 107/5/2 125/5/2
f 107/3/2 123/3/2 125/3/2
f 125/3/2 123/3/2 126/3/2
f 123/5/2 124/5/2 127/5/2
f 126/3/2 123/3/2 127/3/2
f 124/3/2 115/3/2 128/3/2
f 127/5/2 124/5/2 128/5/2
f 128/3/2 115/3/2 129/3/2
f 129/3/2 115/3/2 130/3/2
f 130/3/2 115/3/2 131/3/2
f 116/4/2 117/4/2 132/4/2
f 131/3/2 115/3/2 132/3/2
f 117/4/2 118/4/2 132/4/2
f 120/4/2 121/4/2 132/4/2
f 115/4/2 116/4/2 132/4/2
f 119/4/2 120/4/2 132/4/2
f 118/4/2 119/4/2 132/4/2
f 121/4/2 122/4/2 132/4/2
f 106/5/2 125/5/2 133/5/2
f 125/6/2 126/6/2 133/6/2
f 126/4/2 127/4/2 134/4/2
f 133/6/2 126/6/2 134/6/2
f 128/4/2 129/4/2 134/4/2
f 127/4/2 128/4/2 134/4/2
f 130/3/2 131/3/2 135/3/2
f 129/5/2 130/5/2 135/5/2
f 131/5/2 132/5/2 136/5/2
f 135/3/2 131/3/2 136/3/2
f 129/5/2 135/5/2 137/5/2
f 135/5/2 136/5/2 137/5/2
f 136/5/2 132/5/2 138/5/2
f 137/5/2 136/5/2 138/5/2
f 105/4/2 106/4/2 139/4/2
f 106/5/2 133/5/2 140/5/2
f 139/4/2 106/4/2 140/4/2
f 133/5/2 134/5/2 140/5/2
f 137/4/2 138/4/2 141/4/2
f 129/5/2 137/5/2 141/5/2
f 138/5/2 132/5/2 142/5/2
f 141/4/2 138/4/2 142/4/2
f 134/4/2 129/4/2 143/4/2
f 140/5/2 134/5/2 143/5/2
f 139/5/2 140/5/2 143/5/2
f 141/5/2 142/5/2 144/5/2
f 143/4/2 129/4/2 144/4/2
f 129/5/2 141/5/2 144/5/2
f 139/5/2 143/5/2 145/5/2
f 143/5/2 144/5/2 145/5/2
f 144/5/2 142/5/2 146/5/2
f 145/5/2 144/5/2 146/5/2
f 142/5/2 132/5/2 147/5/2
f 146/5/2 142/5/2 147/5/2
f 132/4/2 122/4/2 147/4/2
f 122/4/2 114/4/2 148/4/2
f 147/4/2 122/4/2 148/4/2
f 145/4/2 146/4/2 149/4/2
f 146/5/2 147/5/2 150/5/2
f 149/4/2 146/4/2 150/4/2
f 147/5/2 148/5/2 150/5/2
f 150/5/2 148/5/2 151/5/2
f 158/3/3 153/3/3 152/3/3
f 158/5/3 154/5/3 153/5/3
f 159/4/3 155/4/3 154/4/3
f 159/5/3 154/5/3 158/5/3
f 160/3/3 159/3/3 158/3/3
f 160/4/3 155/4/3 159/4/3
f 161/4/3 155/4/3 160/4/3
f 162/5/3 156/5/3 155/5/3
f 162/4/3 155/4/3 161/4/3
f 163/4/3 157/4/3 156/4/3
f 163/5/3 156/5/3 162/5/3
f 164/4/3 162/4/3 161/4/3
f 164/3/3 161/3/3 160/3/3
f 164/4/3 163/4/3 162/4/3
f 165/4/3 163/4/3 164/4/3
f 166/4/3 157/4/3 163/4/3
f 166/4/3 163/4/3 165/4/3
f 167/3/3 165/3/3 164/3/3
f 167/5/3 166/5/3 165/5/3
f 168/5/3 166/5/3 167/5/3
f 169/3/3 167/3/3 164/3/3
f 169/3/3 168/3/3 167/3/3
f 170/5/3 166/5/3 168/5/3
f 170/3/3 168/3/3 169/3/3
f 171/4/3 157/4/3 166/4/3
f 171/5/3 166/5/3 170/5/3
f 172/4/3 157/4/3 171/4/3
f 173/4/3 157/4/3 172/4/3
f 174/3/3 164/3/3 160/3/3
f 174/3/3 169/3/3 164/3/3
f 175/4/3 170/4/3 169/4/3
f 175/3/3 169/3/3 174/3/3
f 175/4/3 171/4/3 170/4/3
f 175/4/3 172/4/3 171/4/3
f 176/3/3 174/3/3 160/3/3
f 176/3/3 160/3/3 158/3/3
f 177/5/3 175/5/3 174/5/3
f 177/3/3 174/3/3 176/3/3
f 178/6/3 177/6/3 176/6/3
f 179/5/3 175/5/3 177/5/3
f 179/6/3 177/6/3 178/6/3
f 180/4/3 172/4/3 175/4/3
f 180/5/3 175/5/3 179/5/3
f 181/4/3 172/4/3 180/4/3
f 182/4/3 172/4/3 181/4/3
f 183/5/3 173/5/3 172/5/3
f 183/4/3 172/4/3 182/4/3
f 184/3/3 176/3/3 158/3/3
f 184/3/3 158/3/3 152/3/3
f 185/6/3 178/6/3 176/6/3
f 185/3/3 176/3/3 184/3/3
f 186/5/3 179/5/3 178/5/3
f 186/6/3 178/6/3 185/6/3
f 186/5/3 180/5/3 179/5/3
f 186/5/3 181/5/3 180/5/3
f 187/4/3 182/4/3 181/4/3
f 187/5/3 181/5/3 186/5/3
f 188/6/3 185/6/3 184/6/3
f 188/6/3 186/6/3 185/6/3
f 189/4/3 187/4/3 186/4/3
f 189/6/3 186/6/3 188/6/3
f 190/5/3 173/5/3 183/5/3
f 190/5/3 183/5/3 182/5/3
f 191/5/3 173/5/3 190/5/3
f 192/6/3 188/6/3 184/6/3
f 192/3/3 184/3/3 152/3/3
f 193/5/3 189/5/3 188/5/3
f 193/6/3 188/6/3 192/6/3
f 194/3/3 192/3/3 152/3/3
f 194/3/3 193/3/3 192/3/3
f 195/5/3 189/5/3 193/5/3
f 195/3/3 193/3/3 194/3/3
f 196/4/3 182/4/3 187/4/3
f 196/4/3 187/4/3 189/4/3
f 196/5/3 190/5/3 182/5/3
f 197/4/3 191/4/3 190/4/3
f 197/5/3 190/5/3 196/5/3
f 198/5/3 189/5/3 195/5/3
f 198/5/3 195/5/3 194/5/3
f 198/4/3 197/4/3 196/4/3
f 198/4/3 196/4/3 189/4/3
f 199/4/3 197/4/3 198/4/3
f 200/5/3 199/5/3 198/5/3
f 200/4/3 197/4/3 199/4/3
f 201/4/3 197/4/3 200/4/3
f 202/3/3 194/3/3 152/3/3
f 202/5/3 198/5/3 194/5/3
f 202/5/3 201/5/3 200/5/3
f 202/5/3 200/5/3 198/5/3
f 203/5/3 201/5/3 202/5/3
f 204/3/3 203/3/3 202/3/3
f 204/5/3 201/5/3 203/5/3
f 205/5/3 201/5/3 204/5/3
f 206/3/3 204/3/3 202/3/3
f 206/4/3 205/4/3 204/4/3
f 207/5/3 201/5/3 205/5/3
f 207/4/3 205/4/3 206/4/3
f 208/4/3 197/4/3 201/4/3
f 208/5/3 201/5/3 207/5/3
f 209/4/3 191/4/3 197/4/3
f 209/4/3 197/4/3 208/4/3
f 210/3/3 202/3/3 152/3/3
f 210/3/3 206/3/3 202/3/3
f 211/5/3 208/5/3 207/5/3
f 211/3/3 206/3/3 210/3/3
f 211/5/3 207/5/3 206/5/3
f 211/5/3 209/5/3 208/5/3
f 212/5/3 209/5/3 211/5/3
f 213/5/3 209/5/3 212/5/3
f 214/4/3 191/4/3 209/4/3
f 214/5/3 209/5/3 213/5/3
f 215/3/3 210/3/3 152/3/3
f 216/4/3 211/4/3 210/4/3
f 216/3/3 210/3/3 215/3/3
f 216/4/3 212/4/3 211/4/3
f 217/3/3 215/3/3 152/3/3
f 217/5/3 216/5/3 215/5/3
f 218/4/3 212/4/3 216/4/3
f 218/5/3 216/5/3 217/5/3
f 219/3/3 217/3/3 152/3/3
f 219/3/3 218/3/3 217/3/3
f 220/4/3 212/4/3 218/4/3
f 220/3/3 218/3/3 219/3/3
f 221/5/3 213/5/3 212/5/3
f 221/4/3 212/4/3 220/4/3
f 222/4/3 214/4/3 213/4/3
f 222/5/3 213/5/3 221/5/3
f 223/4/3 191/4/3 214/4/3
f 223/4/3 214/4/3 222/4/3
f 224/3/4 225/3/4 229/3/4
f 225/6/4 226/6/4 229/6/4
f 229/6/4 226/6/4 230/6/4
f 226/4/4 227/4/4 231/4/4
f 230/6/4 226/6/4 231/6/4
f 227/5/4 228/5/4 232/5/4
f 231/4/4 227/4/4 232/4/4
f 232/5/4 228/5/4 233/5/4
f 233/5/4 228/5/4 234/5/4
f 230/5/4 231/5/4 235/5/4
f 231/5/4 232/5/4 235/5/4
f 232/5/4 233/5/4 235/5/4
f 235/5/4 233/5/4 236/5/4
f 234/5/4 228/5/4 237/5/4
f 237/5/4 228/5/4 238/5/4
f 229/3/4 230/3/4 239/3/4
f 230/5/4 235/5/4 239/5/4
f 239/5/4 235/5/4 240/5/4
f 236/5/4 233/5/4 241/5/4
f 233/4/4 234/4/4 241/4/4
f 234/5/4 237/5/4 242/5/4
f 241/4/4 234/4/4 242/4/4
f 240/5/4 235/5/4 243/5/4
f 239/3/4 240/3/4 243/3/4
f 243/5/4 235/5/4 244/5/4
f 241/5/4 242/5/4 245/5/4
f 242/5/4 237/5/4 246/5/4
f 245/5/4 242/5/4 246/5/4
f 244/5/4 235/5/4 247/5/4
f 243/3/4 244/3/4 247/3/4
f 247/5/4 235/5/4 248/5/4
f 247/3/4 248/3/4 249/3/4
f 248/5/4 235/5/4 249/5/4
f 249/5/4 235/5/4 250/5/4
f 235/4/4 236/4/4 251/4/4
f 250/5/4 235/5/4 251/5/4
f 250/6/4 251/6/4 252/6/4
f 251/4/4 236/4/4 252/4/4
f 241/5/4 245/5/4 253/5/4
f 252/4/4 236/4/4 253/4/4
f 236/5/4 241/5/4 253/5/4
f 252/5/4 253/5/4 254/5/4
f 245/4/4 246/4/4 255/4/4
f 254/5/4 253/5/4 255/5/4
f 253/5/4 245/5/4 255/5/4
f 252/5/4 254/5/4 256/5/4
f 254/4/4 255/4/4 256/4/4
f 255/4/4 246/4/4 257/4/4
f 256/4/4 255/4/4 257/4/4
f 256/5/4 257/5/4 258/5/4
f 257/4/4 246/4/4 258/4/4
f 246/5/4 237/5/4 259/5/4
f 258/4/4 246/4/4 259/4/4
f 256/5/4 258/5/4 260/5/4
f 252/5/4 256/5/4 260/5/4
f 258/5/4 259/5/4 260/5/4
f 260/5/4 259/5/4 261/5/4
f 250/6/4 252/6/4 262/6/4
f 249/3/4 250/3/4 262/3/4
f 252/5/4 260/5/4 263/5/4
f 262/6/4 252/6/4 263/6/4
f 249/3/4 262/3/4 264/3/4
f 262/5/4 263/5/4 264/5/4
f 263/5/4 260/5/4 265/5/4
f 264/5/4 263/5/4 265/5/4
f 264/3/4 265/3/4 266/3/4
f 265/5/4 260/5/4 266/5/4
f 260/4/4 261/4/4 267/4/4
f 266/5/4 260/5/4 267/5/4
f 261/5/4 259/5/4 268/5/4
f 267/4/4 261/4/4 268/4/4
f 259/5/4 237/5/4 269/5/4
f 268/5/4 259/5/4 269/5/4
f 237/4/4 238/4/4 269/4/4
f 269/4/4 238/4/4 270/4/4
f 266/3/4 267/3/4 271/3/4
f 267/4/4 268/4/4 271/4/4
f 268/4/4 269/4/4 271/4/4
f 271/4/4 269/4/4 272/4/4
f 272/4/4 269/4/4 273/4/4
f 273/4/4 269/4/4 274/4/4
f 266/3/4 271/3/4 275/3/4
f 271/3/4 272/3/4 275/3/4
f 272/6/4 273/6/4 276/6/4
f 275/3/4 272/3/4 276/3/4
f 274/4/4 269/4/4 277/4/4
f 273/5/4 274/5/4 277/5/4
f 269/5/4 270/5/4 278/5/4
f 277/4/4 269/4/4 278/4/4
f 276/6/4 273/6/4 279/6/4
f 275/6/4 276/6/4 279/6/4
f 273/5/4 277/5/4 280/5/4
f 279/6/4 273/6/4 280/6/4
f 277/5/4 278/5/4 280/5/4
f 279/5/4 280/5/4 281/5/4
f 280/5/4 278/5/4 281/5/4
f 278/5/4 270/5/4 282/5/4
f 281/5/4 278/5/4 282/5/4
f 264/3/4 266/3/4 283/3/4
f 266/3/4 275/3/4 283/3/4
f 275/6/4 279/6/4 284/6/4
f 283/3/4 275/3/4 284/3/4
f 283/6/4 284/6/4 285/6/4
f 284/6/4 279/6/4 285/6/4
f 279/5/4 281/5/4 286/5/4
f 285/6/4 279/6/4 286/6/4
f 264/3/4 283/3/4 287/3/4
f 249/3/4 264/3/4 287/3/4
f 283/6/4 285/6/4 288/6/4
f 287/3/4 283/3/4 288/3/4
f 285/5/4 286/5/4 289/5/4
f 288/6/4 285/6/4 289/6/4
f 286/5/4 281/5/4 290/5/4
f 289/5/4 286/5/4 290/5/4
f 281/4/4 282/4/4 290/4/4
f 290/4/4 282/4/4 291/4/4
f 247/3/4 249/3/4 292/3/4
f 249/3/4 287/3/4 292/3/4
f 288/4/4 289/4/4 293/4/4
f 292/3/4 287/3/4 293/3/4
f 287/4/4 288/4/4 293/4/4
f 293/4/4 289/4/4 294/4/4
f 289/5/4 290/5/4 295/5/4
f 294/4/4 289/4/4 295/4/4
f 290/5/4 291/5/4 295/5/4
f 247/3/4 292/3/4 296/3/4
f 243/3/4 247/3/4 296/3/4
f 293/4/4 294/4/4 297/4/4
f 296/3/4 292/3/4 297/3/4
f 292/4/4 293/4/4 297/4/4
f 294/5/4 295/5/4 298/5/4
f 297/4/4 294/4/4 298/4/4
f 295/5/4 291/5/4 299/5/4
f 298/5/4 295/5/4 299/5/4
f 243/3/4 296/3/4 300/3/4
f 239/3/4 243/3/4 300/3/4
f 297/4/4 298/4/4 301/4/4
f 300/3/4 296/3/4 301/3/4
f 298/4/4 299/4/4 301/4/4
f 296/4/4 297/4/4 301/4/4
f 299/5/4 291/5/4 302/5/4
f 301/4/4 299/4/4 302/4/4
f 300/4/4 301/4/4 302/4/4
f 302/5/4 291/5/4 303/5/4
f 224/3/4 229/3/4 304/3/4
f 239/3/4 300/3/4 304/3/4
f 229/3/4 239/3/4 304/3/4
f 302/4/4 303/4/4 305/4/4
f 304/3/4 300/3/4 305/3/4
f 300/4/4 302/4/4 305/4/4
f 303/5/4 291/5/4 306/5/4
f 305/4/4 303/4/4 306/4/4
f 306/5/4 291/5/4 307/5/4
f 310/3/5 309/3/5 308/3/5
f 311/3/5 309/3/5 310/3/5
f 312/4/6 313/4/6 316/4/6
f 313/5/6 314/5/6 317/5/6
f 316/4/6 313/4/6 317/4/6
f 314/4/6 315/4/6 318/4/6
f 318/4/6 315/4/6 319/4/6
f 318/5/6 319/5/6 320/5/6
f 319/4/6 315/4/6 321/4/6
f 320/5/6 319/5/6 321/5/6
f 316/5/6 317/5/6 322/5/6
f 317/5/6 314/5/6 323/5/6
f 322/5/6 317/5/6 323/5/6
f 314/4/6 318/4/6 323/4/6
f 318/5/6 320/5/6 324/5/6
f 323/4/6 318/4/6 324/4/6
f 320/4/6 321/4/6 325/4/6
f 324/5/6 320/5/6 325/5/6
f 321/4/6 315/4/6 326/4/6
f 325/4/6 321/4/6 326/4/6
f 324/4/6 325/4/6 326/4/6
f 322/4/6 323/4/6 326/4/6
f 323/4/6 324/4/6 326/4/6
f 326/4/6 315/4/6 327/4/6
f 322/4/6 326/4/6 328/4/6
f 326/5/6 327/5/6 328/5/6
f 327/4/6 315/4/6 329/4/6
f 328/5/6 327/5/6 329/5/6
f 328/4/6 329/4/6 330/4/6
f 329/4/6 315/4/6 330/4/6
f 330/4/6 315/4/6 331/4/6
f 322/4/6 328/4/6 332/4/6
f 328/4/6 330/4/6 332/4/6
f 332/4/6 330/4/6 333/4/6
f 333/4/6 330/4/6 334/4/6
f 334/4/6 330/4/6 335/4/6
f 322/4/6 332/4/6 336/4/6
f 332/5/6 333/5/6 336/5/6
f 336/5/6 333/5/6 337/5/6
f 337/5/6 333/5/6 338/5/6
f 333/4/6 334/4/6 339/4/6
f 338/5/6 333/5/6 339/5/6
f 337/5/6 338/5/6 340/5/6
f 338/4/6 339/4/6 341/4/6
f 340/5/6 338/5/6 341/5/6
f 322/4/6 336/4/6 342/4/6
f 336/4/6 337/4/6 342/4/6
f 337/5/6 340/5/6 343/5/6
f 342/4/6 337/4/6 343/4/6
f 335/4/6 330/4/6 344/4/6
f 334/5/6 335/5/6 344/5/6
f 344/4/6 330/4/6 345/4/6
f 341/4/6 339/4/6 346/4/6
f 340/4/6 341/4/6 346/4/6
f 339/4/6 334/4/6 347/4/6
f 346/4/6 339/4/6 347/4/6
f 347/4/6 334/4/6 348/4/6
f 344/5/6 345/5/6 349/5/6
f 348/4/6 334/4/6 349/4/6
f 334/5/6 344/5/6 349/5/6
f 322/4/6 342/4/6 350/4/6
f 342/5/6 343/5/6 351/5/6
f 350/4/6 342/4/6 351/4/6
f 350/5/6 351/5/6 352/5/6
f 351/5/6 343/5/6 352/5/6
f 343/5/6 340/5/6 353/5/6
f 352/5/6 343/5/6 353/5/6
f 340/4/6 346/4/6 354/4/6
f 353/5/6 340/5/6 354/5/6
f 346/5/6 347/5/6 355/5/6
f 354/4/6 346/4/6 355/4/6
f 347/4/6 348/4/6 356/4/6
f 355/5/6 347/5/6 356/5/6
f 348/5/6 349/5/6 357/5/6
f 356/4/6 348/4/6 357/4/6
f 355/4/6 356/4/6 357/4/6
f 345/4/6 330/4/6 358/4/6
f 357/5/6 349/5/6 358/5/6
f 349/5/6 345/5/6 358/5/6
f 350/5/6 352/5/6 359/5/6
f 352/4/6 353/4/6 360/4/6
f 359/5/6 352/5/6 360/5/6
f 354/5/6 355/5/6 361/5/6
f 360/4/6 353/4/6 361/4/6
f 353/5/6 354/5/6 361/5/6
f 355/4/6 357/4/6 362/4/6
f 361/5/6 355/5/6 362/5/6
f 357/4/6 358/4/6 362/4/6
f 350/5/6 359/5/6 363/5/6
f 363/5/6 359/5/6 364/5/6
f 360/4/6 361/4/6 365/4/6
f 364/5/6 359/5/6 365/5/6
f 359/4/6 360/4/6 365/4/6
f 361/4/6 362/4/6 365/4/6
f 365/4/6 362/4/6 366/4/6
f 362/4/6 358/4/6 367/4/6
f 366/4/6 362/4/6 367/4/6
f 358/4/6 330/4/6 368/4/6
f 367/4/6 358/4/6 368/4/6
f 366/4/6 367/4/6 369/4/6
f 365/5/6 366/5/6 369/5/6
f 369/4/6 367/4/6 370/4/6
f 363/4/6 364/4/6 371/4/6
f 364/5/6 365/5/6 372/5/6
f 371/4/6 364/4/6 372/4/6
f 365/5/6 369/5/6 372/5/6
f 369/5/6 370/5/6 372/5/6
f 368/4/6 330/4/6 373/4/6
f 367/5/6 368/5/6 373/5/6
f 373/4/6 330/4/6 374/4/6
f 374/4/6 330/4/6 375/4/6
f 330/5/6 331/5/6 376/5/6
f 375/4/6 330/4/6 376/4/6
f 371/5/6 372/5/6 377/5/6
f 372/5/6 370/5/6 378/5/6
f 377/5/6 372/5/6 378/5/6
f 370/4/6 367/4/6 378/4/6
f 367/5/6 373/5/6 379/5/6
f 378/4/6 367/4/6 379/4/6
f 373/5/6 374/5/6 379/5/6
f 374/4/6 375/4/6 380/4/6
f 379/5/6 374/5/6 380/5/6
f 375/5/6 376/5/6 381/5/6
f 380/4/6 375/4/6 381/4/6
f 376/5/6 331/5/6 382/5/6
f 381/5/6 376/5/6 382/5/6
